<svg id="svg" xmlns="http://www.w3.org/2000/svg" width="20" height="22" viewBox="0 0 20 22">
  <path id="Path_10806" data-name="Path 10806" d="M19,4H15V3a2.946,2.946,0,0,0-3-3H8A2.946,2.946,0,0,0,5,3V4H1A.945.945,0,0,0,0,5,.945.945,0,0,0,1,6H2V19a2.946,2.946,0,0,0,3,3H15a2.946,2.946,0,0,0,3-3V6h1a.945.945,0,0,0,1-1A.945.945,0,0,0,19,4ZM7,3A.945.945,0,0,1,8,2h4a.945.945,0,0,1,1,1V4H7Zm9,16a.945.945,0,0,1-1,1H5a.945.945,0,0,1-1-1V6H16Z"/>
  <path id="Path_10807" data-name="Path 10807" d="M8,9a.945.945,0,0,0-1,1v6a.945.945,0,0,0,1,1,.945.945,0,0,0,1-1V10A.945.945,0,0,0,8,9Z"/>
  <path id="Path_10808" data-name="Path 10808" d="M12,9a.945.945,0,0,0-1,1v6a1,1,0,0,0,2,0V10A.945.945,0,0,0,12,9Z"/>
</svg>
