<svg xmlns="http://www.w3.org/2000/svg" width="22.499" height="23" viewBox="0 0 22.499 23">
  <g id="Group_626" data-name="Group 626" transform="translate(-423.208 -170.75)">
    <path id="Path_202" data-name="Path 202" d="M435.694,191.45H428.3a2.8,2.8,0,0,1-2.793-2.793V175.843a2.8,2.8,0,0,1,2.793-2.793h7.392a1.15,1.15,0,1,0,0-2.3H428.3a5.1,5.1,0,0,0-5.093,5.093v12.813a5.1,5.1,0,0,0,5.093,5.093h7.392a1.15,1.15,0,0,0,0-2.3Z" transform="translate(0)"/>
    <path id="Path_203" data-name="Path 203" d="M444.614,181.587a1.034,1.034,0,0,0-.006-.118,1.083,1.083,0,0,0-.055-.283.96.96,0,0,0-.04-.114,1.136,1.136,0,0,0-.227-.342l-4.929-4.929a1.15,1.15,0,0,0-1.626,1.626l2.966,2.966h-9.053a1.15,1.15,0,1,0,0,2.3H440.7l-2.966,2.966a1.15,1.15,0,1,0,1.626,1.626l4.929-4.929c.01-.01.014-.025.023-.036a1.149,1.149,0,0,0,.227-.337v0a.249.249,0,0,0,.008-.031A1.125,1.125,0,0,0,444.614,181.587Z" transform="translate(1.093 0.707)"/>
  </g>
</svg>
