<svg xmlns="http://www.w3.org/2000/svg" width="18.393" height="23.039" viewBox="0 0 18.393 23.039">
  <g id="Group_3524" data-name="Group 3524" transform="translate(-0.8 -0.955)">
    <path id="Path_10785" data-name="Path 10785" d="M9.991,13.2H10A3.8,3.8,0,0,0,10,5.6h0A3.8,3.8,0,0,0,6.2,9.4v.019A3.79,3.79,0,0,0,9.991,13.2ZM10,7.2A2.2,2.2,0,1,1,7.8,9.4,2.2,2.2,0,0,1,10,7.2Z"/>
    <path id="Path_10786" data-name="Path 10786" d="M9.479,23.81a.821.821,0,0,0,1.035,0c.111-.083,8.679-7.4,8.679-13.909A9.2,9.2,0,0,0,.8,9.913C.8,16.216,9.1,23.483,9.479,23.81ZM4.624,4.529A7.6,7.6,0,0,1,17.6,9.9c0,4.321-4.588,9.353-7.324,11.967a.4.4,0,0,1-.552,0C6.987,19.255,2.4,14.223,2.4,9.9A7.542,7.542,0,0,1,4.624,4.529Z"/>
  </g>
</svg>
