<svg xmlns="http://www.w3.org/2000/svg" width="19" height="33" viewBox="0 0 19 33">
  <metadata><?xpacket begin="﻿" id="W5M0MpCehiHzreSzNTczkc9d"?>
<x:xmpmeta xmlns:x="adobe:ns:meta/" x:xmptk="Adobe XMP Core 5.6-c142 79.160924, 2017/07/13-01:06:39        ">
   <rdf:RDF xmlns:rdf="http://www.w3.org/1999/02/22-rdf-syntax-ns#">
      <rdf:Description rdf:about=""/>
   </rdf:RDF>
</x:xmpmeta>
                                                                                                    
                                                                                                    
                                                                                                    
                                                                                                    
                                                                                                    
                                                                                                    
                                                                                                    
                                                                                                    
                                                                                                    
                                                                                                    
                                                                                                    
                                                                                                    
                                                                                                    
                                                                                                    
                                                                                                    
                                                                                                    
                                                                                                    
                                                                                                    
                                                                                                    
                                                                                                    
                           
<?xpacket end="w"?></metadata>
<defs>
    
  </defs>
  <path id="Login" class="cls-1" d="M1313.71,100.7l-5.16,0V99.059h3.3a2.151,2.151,0,1,0,0-4.293h-3.29v-5.7a9.374,9.374,0,0,0,4.25-2.272,8.273,8.273,0,0,0,.01-12.255,9.721,9.721,0,0,0-13.1,0,8.272,8.272,0,0,0-.01,12.255h0a9.4,9.4,0,0,0,4.26,2.27l-0.01,13.786a2.064,2.064,0,0,0,.68,1.518,2.111,2.111,0,0,0,.33.262,2.422,2.422,0,0,0,1.29.366l7.45,0A2.151,2.151,0,1,0,1313.71,100.7ZM1302.96,83.76a4.174,4.174,0,0,1,0-6.184,4.905,4.905,0,0,1,6.61,0,4.174,4.174,0,0,1,0,6.184A4.9,4.9,0,0,1,1302.96,83.76Z" transform="translate(-1297 -72)"/>
</svg>
