<svg xmlns="http://www.w3.org/2000/svg" width="16" height="16" viewBox="0 0 16 16"><g><g><path d="M9.182.751l1.427 3.04c.185.395.555.67.985.737l3.296.503c1.05.16 1.48 1.442.737 2.203l-2.466 2.528c-.289.296-.42.713-.354 1.122l.57 3.499c.176 1.076-.966 1.88-1.92 1.353l-2.825-1.562a1.306 1.306 0 0 0-1.264 0l-2.825 1.562c-.955.527-2.096-.277-1.92-1.353l.57-3.5a1.307 1.307 0 0 0-.354-1.121L.372 7.234c-.742-.76-.313-2.042.738-2.203l3.296-.503c.43-.066.8-.342.984-.736L6.818.752c.47-1.002 1.894-1.002 2.364 0z"/></g></g></svg>