<svg height="512pt" viewBox="0 0 512 512.00051" width="512pt" xmlns="http://www.w3.org/2000/svg"><path d="m504.339844 187.367188v269.34375c0 13.816406-5.878906 26.253906-15.265625 34.964843-8.515625 7.894531-19.910157 12.71875-32.429688 12.71875h-401.351562c-12.519531 0-23.914063-4.824219-32.417969-12.710937-9.390625-8.71875-15.269531-21.15625-15.269531-34.972656v-269.34375zm0 0" fill="#fec970"/><path d="m258 504.394531h-202.707031c-26.335938 0-47.6875-21.347656-47.6875-47.683593v-270.945313l52.96875 45.710937 3.304687 2.746094v135.933594c0 46.246094 18.660156 90.078125 61.207032 108.222656 39.253906 16.742188 109.09375 26.015625 132.914062 26.015625zm0 0" fill="#fba028"/><path d="m504.339844 187.367188-190.933594-158.980469c-33.277344-27.707031-81.59375-27.707031-114.871094 0l-190.933594 158.980469h.003907l56.273437 46.855468 134.65625 112.121094c33.28125 27.714844 81.597656 27.714844 114.867188 0l134.667968-112.121094z" fill="#fba028"/><path d="m448.070312 88.152344v146.070312l-134.667968 112.121094c-33.269532 27.714844-81.585938 27.714844-114.867188 0l-134.65625-112.121094v-146.070312c0-30.453125 24.695313-55.148438 55.160156-55.148438h273.882813c30.460937 0 55.148437 24.695313 55.148437 55.148438zm0 0" fill="#bfdadd"/><path d="m448.070312 88.152344v112.617187l-134.667968 112.121094c-33.269532 27.714844-81.585938 27.714844-114.867188 0l-134.65625-112.121094v-112.617187c0-30.453125 24.695313-55.148438 55.160156-55.148438h273.882813c30.460937 0 55.148437 24.695313 55.148437 55.148438zm0 0" fill="#e4f5f7"/><path d="m494.203125 114.054688c0 58.507812-47.429687 105.9375-105.9375 105.9375s-105.9375-47.429688-105.9375-105.9375c0-58.511719 47.429687-105.941407 105.9375-105.941407s105.9375 47.429688 105.9375 105.941407zm0 0" fill="#26bf64"/><path d="m494.199219 114.050781c0 51.484375-36.714844 94.386719-85.394531 103.949219-48.683594-9.550781-85.410157-52.464844-85.410157-103.949219 0-51.480469 36.726563-94.390625 85.410157-103.941406 48.679687 9.558594 85.394531 52.460937 85.394531 103.941406zm0 0" fill="#49d685"/><path d="m453.179688 471.6875c1.421874 1.183594 3.144531 1.761719 4.859374 1.761719 2.179688 0 4.34375-.933594 5.847657-2.742188 2.6875-3.226562 2.25-8.019531-.980469-10.707031l-121.230469-100.9375c-3.226562-2.6875-8.019531-2.25-10.710937.980469-2.683594 3.226562-2.246094 8.019531.980468 10.707031zm0 0"/><path d="m53.90625 473.445312c1.714844 0 3.441406-.574218 4.863281-1.757812l121.234375-100.941406c3.226563-2.683594 3.664063-7.480469.976563-10.707032-2.6875-3.226562-7.480469-3.664062-10.707031-.976562l-121.230469 100.9375c-3.230469 2.6875-3.667969 7.480469-.980469 10.707031 1.5 1.808594 3.667969 2.738281 5.84375 2.738281zm0 0"/><path d="m144.464844 225.832031h160.171875c4.199219 0 7.601562-3.40625 7.601562-7.605469 0-4.199218-3.402343-7.601562-7.601562-7.601562h-160.171875c-4.199219 0-7.605469 3.402344-7.605469 7.601562 0 4.199219 3.40625 7.605469 7.605469 7.605469zm0 0"/><path d="m367.484375 254.78125h-223.019531c-4.199219 0-7.605469 3.40625-7.605469 7.605469s3.40625 7.601562 7.605469 7.601562h223.019531c4.203125 0 7.605469-3.402343 7.605469-7.601562s-3.40625-7.605469-7.605469-7.605469zm0 0"/><path d="m144.464844 137.515625h111.511718c4.199219 0 7.601563-3.40625 7.601563-7.605469 0-4.195312-3.402344-7.601562-7.601563-7.601562h-111.511718c-4.199219 0-7.605469 3.40625-7.605469 7.601562 0 4.199219 3.40625 7.605469 7.605469 7.605469zm0 0"/><path d="m211.617188 174.070312c0 4.199219 3.40625 7.601563 7.605468 7.601563h55c4.199219 0 7.601563-3.402344 7.601563-7.601563 0-4.199218-3.402344-7.605468-7.601563-7.605468h-55c-4.199218 0-7.605468 3.40625-7.605468 7.605468zm0 0"/><path d="m144.464844 181.671875h49.410156c4.199219 0 7.605469-3.402344 7.605469-7.601563 0-4.199218-3.40625-7.605468-7.605469-7.605468h-49.410156c-4.199219 0-7.605469 3.40625-7.605469 7.605468 0 4.199219 3.40625 7.601563 7.605469 7.601563zm0 0"/><path d="m426.390625 62.1875-40.75 95.085938-36.148437-43.046876c-2.699219-3.214843-7.492188-3.632812-10.710938-.933593-3.214844 2.703125-3.632812 7.5-.929688 10.714843l44.089844 52.503907c1.457032 1.734375 3.59375 2.714843 5.820313 2.714843.367187 0 .738281-.027343 1.113281-.082031 2.609375-.386719 4.835938-2.097656 5.875-4.527343l45.617188-106.441407c1.65625-3.859375-.132813-8.328125-3.992188-9.984375-3.859375-1.652344-8.328125.136719-9.984375 3.996094zm0 0"/><path d="m505.402344 178.355469-15.816406-13.167969c7.828124-15.476562 12.21875-32.890625 12.21875-51.136719 0-20.632812-5.59375-40.839843-16.167969-58.429687-2.167969-3.601563-6.839844-4.761719-10.4375-2.597656-3.597657 2.164062-4.761719 6.835937-2.597657 10.433593 9.15625 15.222657 13.996094 32.71875 13.996094 50.589844 0 46.890625-33.332031 87.472656-79.261718 96.488281-6.246094 1.230469-12.664063 1.855469-19.070313 1.855469-54.222656 0-98.335937-44.117187-98.335937-98.34375 0-54.21875 44.113281-98.332031 98.335937-98.332031 6.40625 0 12.820313.625 19.070313 1.855468 17.800781 3.496094 34.285156 11.886719 47.675781 24.273438 3.082031 2.847656 7.894531 2.660156 10.746093-.421875 2.851563-3.082031 2.660157-7.894531-.421874-10.746094-15.460938-14.296875-34.503907-23.988281-55.0625-28.027343-7.214844-1.417969-14.617188-2.140626-22.007813-2.140626-25.777344 0-49.566406 8.640626-68.648437 23.167969l-1.347657-1.125c-36.09375-30.066406-88.496093-30.066406-124.601562 0l-3.417969 2.851563h-71.210938c-34.605468 0-62.761718 28.148437-62.761718 62.75v49.304687l-51.441406 42.828125c-.152344.0625-.304688.125-.457032.199219-2.671875 1.25-4.37499975 3.933594-4.37499975 6.882813v209.113281c0 4.199219 3.40234375 7.601562 7.60156275 7.601562s7.605469-3.402343 7.605469-7.601562v-192.886719l178.460937 148.59375c18.050781 15.03125 40.175781 22.550781 62.300781 22.546875 22.125 0 44.25-7.515625 62.292969-22.546875l178.46875-148.59375v253.113281c0 22.105469-17.980469 40.085938-40.085937 40.085938h-401.355469c-22.105469 0-40.085938-17.980469-40.085938-40.085938v-29.8125c0-4.199219-3.40625-7.601562-7.605469-7.601562-4.195312 0-7.601562 3.402343-7.601562 7.601562v29.8125c0 30.488281 24.804688 55.292969 55.292969 55.292969h401.355469c30.488281 0 55.292968-24.804688 55.292968-55.292969v-269.132812c0-.003907 0-.007813 0-.011719.09375-3.683594-1.046875-4.632812-6.539062-9.207031zm-209.820313-152.953125h-79.222656c24.621094-13.574219 54.609375-13.574219 79.222656 0zm-239.304687 131.839844v60.757812l-36.484375-30.378906zm252.257812 183.261718c-30.453125 25.367188-74.667968 25.367188-105.132812-.003906l-131.917969-109.839844v-142.507812c0-26.21875 21.332031-47.546875 47.554687-47.546875h73.988282.027344 108.695312c-16.84375 19.8125-27.023438 45.460937-27.023438 73.445312 0 62.609375 50.933594 113.546875 113.539063 113.546875 7.390625 0 14.796875-.71875 22.003906-2.140625 10.730469-2.105469 20.855469-5.726562 30.195313-10.578125v15.777344zm147.136719-122.507812v-12.601563c10.132813-7.5 18.941406-16.625 26.0625-26.957031 3.324219 2.765625 7.347656 6.117188 10.726563 8.929688zm0 0"/></svg>