<svg xmlns="http://www.w3.org/2000/svg" width="96" height="95.428" viewBox="0 0 96 95.428">
  <path id="Path_84" data-name="Path 84" d="M127.4,142.227a10.194,10.194,0,0,0-7.6-17H100A65.927,65.927,0,0,0,102.8,108v-3.4A13.617,13.617,0,0,0,89.2,91H85.8a3.4,3.4,0,0,0-3.3,2.575l-1.852,7.41c-2.6,10.377-10.835,21.826-19.362,23.907a10.214,10.214,0,0,0-9.488-6.465H37.4a3.4,3.4,0,0,0-3.4,3.4v61.2a3.4,3.4,0,0,0,3.4,3.4H51.8a10.211,10.211,0,0,0,9.207-5.814l11.682,3.894a37.318,37.318,0,0,0,11.828,1.92H113a10.2,10.2,0,0,0,9.484-13.958,10.194,10.194,0,0,0,4.912-16.642,10.18,10.18,0,0,0,0-13.6Zm-72.2,34a3.4,3.4,0,0,1-3.4,3.4h-11v-54.4h11a3.4,3.4,0,0,1,3.4,3.4Zm57.8-30.6h6.8a3.4,3.4,0,1,1,0,6.8H113a3.4,3.4,0,0,0,0,6.8h6.8a3.4,3.4,0,1,1,0,6.8H113a3.4,3.4,0,1,0,0,6.8,3.4,3.4,0,0,1,0,6.8H84.517a30.534,30.534,0,0,1-9.679-1.571L62,173.777V131.705c5.333-1.013,10.554-4.391,15.266-9.919a49.611,49.611,0,0,0,9.98-19.151L88.454,97.8H89.2a6.808,6.808,0,0,1,6.8,6.8V108c0,4.565-1.428,13.321-3.255,17.229H85.8a3.4,3.4,0,0,0,0,6.8h34a3.4,3.4,0,1,1,0,6.8H113a3.4,3.4,0,0,0,0,6.8Z" transform="translate(130 186.428) rotate(180)"/>
</svg>
