<svg xmlns="http://www.w3.org/2000/svg" width="302.776" height="375.629" viewBox="0 0 302.776 375.629">
  <g id="Сгруппировать_3647" data-name="Сгруппировать 3647" transform="translate(-809 -285)">
    <g id="Background_Complete" data-name="Background Complete" transform="translate(887.484 285.001)">
      <g id="Сгруппировать_3529" data-name="Сгруппировать 3529">
        <g id="Сгруппировать_3526" data-name="Сгруппировать 3526">
          <g id="Сгруппировать_3525" data-name="Сгруппировать 3525">
            <path id="Контур_5064" data-name="Контур 5064" d="M239.845,248.7a20.582,20.582,0,0,1-24.13-26.2L250.9,109.234a20.374,20.374,0,0,1,15.117-13.97l.063-.014a20.376,20.376,0,0,1,19.593,6.121l80.5,87.111A20.583,20.583,0,0,1,355.6,222.528l-115.693,26.16Zm27.576-147.453-.045.011a14.286,14.286,0,0,0-10.6,9.8l-35.19,113.271A14.435,14.435,0,0,0,238.508,242.7l.045-.009,115.693-26.162a14.436,14.436,0,0,0,7.419-23.877l-80.5-87.114A14.291,14.291,0,0,0,267.421,101.249Z" transform="translate(-214.765 -94.743)" fill="#fd7e62"/>
          </g>
        </g>
        <g id="Сгруппировать_3528" data-name="Сгруппировать 3528" transform="translate(54.205 46.779)">
          <g id="Сгруппировать_3527" data-name="Сгруппировать 3527">
            <path id="Контур_5065" data-name="Контур 5065" d="M251.891,179.017a7.6,7.6,0,0,1,6.053-9.154,7.491,7.491,0,0,1,9.258,5.629,7.571,7.571,0,0,1-5.84,9.209A7.679,7.679,0,0,1,251.891,179.017Zm-13.2-60.362,14.165-3.262,7.924,45.348-9.476,2.186Z" transform="translate(-238.693 -115.393)" fill="#fd7e62"/>
          </g>
        </g>
      </g>
    </g>
    <g id="Сгруппировать_3545" data-name="Сгруппировать 3545" transform="translate(809 408.902)">
      <g id="Сгруппировать_3544" data-name="Сгруппировать 3544">
        <g id="Сгруппировать_3543" data-name="Сгруппировать 3543">
          <path id="Контур_5072" data-name="Контур 5072" d="M564.052,164.005H279.068a8.9,8.9,0,0,0-8.9,8.9V374.19a8.9,8.9,0,0,0,8.9,8.9H388.443s6.959,21.514-14.609,32.646H476.1s-24.35-8.348-18.089-32.646H564.052a8.9,8.9,0,0,0,8.9-8.9V172.9A8.9,8.9,0,0,0,564.052,164.005Z" transform="translate(-270.172 -164.005)" fill="#2a2a2a"/>
        </g>
      </g>
    </g>
    <g id="Сгруппировать_3552" data-name="Сгруппировать 3552" transform="translate(954.762 605.115)">
      <g id="Сгруппировать_3551" data-name="Сгруппировать 3551">
        <g id="Сгруппировать_3550" data-name="Сгруппировать 3550">
          <g id="Сгруппировать_3549" data-name="Сгруппировать 3549">
            <g id="Сгруппировать_3548" data-name="Сгруппировать 3548">
              <path id="Контур_5073" data-name="Контур 5073" d="M343.948,252.319c3.876,5.541-2.191,11.608-7.734,7.732a1.977,1.977,0,0,1-.476-.476c-3.867-5.541,2.193-11.6,7.732-7.732A1.948,1.948,0,0,1,343.948,252.319Z" transform="translate(-334.517 -250.62)" fill="#999"/>
            </g>
          </g>
        </g>
      </g>
    </g>
    <g id="Сгруппировать_3555" data-name="Сгруппировать 3555" transform="translate(814 412.589)">
      <g id="Сгруппировать_3554" data-name="Сгруппировать 3554">
        <path id="Прямоугольник_5616" data-name="Прямоугольник 5616" d="M2.847,0H290.114a2.847,2.847,0,0,1,2.847,2.847V178.569a0,0,0,0,1,0,0H0a0,0,0,0,1,0,0V2.847A2.847,2.847,0,0,1,2.847,0Z" fill="#fff"/>
      </g>
    </g>
    <g id="Сгруппировать_3559" data-name="Сгруппировать 3559" transform="translate(813.908 412.589)">
      <g id="Сгруппировать_3558" data-name="Сгруппировать 3558">
        <path id="Прямоугольник_5617" data-name="Прямоугольник 5617" d="M2.978,0H290.516a2.445,2.445,0,0,1,2.445,2.445V14.838a0,0,0,0,1,0,0H0a0,0,0,0,1,0,0V2.978A2.978,2.978,0,0,1,2.978,0Z" fill="#f5f5f5"/>
      </g>
    </g>
    <g id="Сгруппировать_3566" data-name="Сгруппировать 3566" transform="translate(821.179 418.263)">
      <g id="Сгруппировать_3561" data-name="Сгруппировать 3561">
        <g id="Сгруппировать_3560" data-name="Сгруппировать 3560">
          <path id="Контур_5074" data-name="Контур 5074" d="M279.664,170.194a2.058,2.058,0,1,1-2.057-2.057A2.059,2.059,0,0,1,279.664,170.194Z" transform="translate(-275.548 -168.137)" fill="#999"/>
        </g>
      </g>
      <g id="Сгруппировать_3563" data-name="Сгруппировать 3563" transform="translate(6.135)">
        <g id="Сгруппировать_3562" data-name="Сгруппировать 3562">
          <path id="Контур_5075" data-name="Контур 5075" d="M282.372,170.194a2.058,2.058,0,1,1-2.057-2.057A2.057,2.057,0,0,1,282.372,170.194Z" transform="translate(-278.256 -168.137)" fill="#999"/>
        </g>
      </g>
      <g id="Сгруппировать_3565" data-name="Сгруппировать 3565" transform="translate(11.97)">
        <g id="Сгруппировать_3564" data-name="Сгруппировать 3564">
          <path id="Контур_5076" data-name="Контур 5076" d="M284.948,170.194a2.058,2.058,0,1,1-2.059-2.057A2.059,2.059,0,0,1,284.948,170.194Z" transform="translate(-280.832 -168.137)" fill="#999"/>
        </g>
      </g>
    </g>
    <g id="Сгруппировать_3570" data-name="Сгруппировать 3570" transform="translate(870.787 627.84)">
      <g id="Сгруппировать_3569" data-name="Сгруппировать 3569">
        <g id="Сгруппировать_3568" data-name="Сгруппировать 3568">
          <path id="Контур_5077" data-name="Контур 5077" d="M478.588,260.824c0,.093-40.552.17-90.566.17-50.03,0-90.575-.077-90.575-.17s40.545-.172,90.575-.172C438.036,260.652,478.588,260.729,478.588,260.824Z" transform="translate(-297.447 -260.652)" fill="#999"/>
        </g>
      </g>
    </g>
    <g id="Сгруппировать_3581" data-name="Сгруппировать 3581" transform="translate(838.765 466.886)">
      <g id="Сгруппировать_3578" data-name="Сгруппировать 3578">
        <g id="Сгруппировать_3577" data-name="Сгруппировать 3577">
          <path id="Контур_5100" data-name="Контур 5100" d="M288.7,227.434a5.422,5.422,0,0,1-4.642-8.155l15.749-26.987a5.371,5.371,0,0,1,4.71-2.691l.018,0a5.362,5.362,0,0,1,4.664,2.732l15.5,27.132a5.422,5.422,0,0,1-4.734,8.112l-31.248-.145Zm15.821-36.214h-.011a3.766,3.766,0,0,0-3.3,1.887L285.458,220.1a3.8,3.8,0,0,0,3.255,5.72h.011l31.248.143a3.8,3.8,0,0,0,3.319-5.688l-15.5-27.134A3.771,3.771,0,0,0,304.521,191.221Z" transform="translate(-283.311 -189.601)" fill="#fd7e62"/>
        </g>
      </g>
      <g id="Сгруппировать_3580" data-name="Сгруппировать 3580" transform="translate(18.834 12.888)">
        <g id="Сгруппировать_3579" data-name="Сгруппировать 3579">
          <path id="Контур_5101" data-name="Контур 5101" d="M291.625,211.566a2,2,0,0,1,2.1-1.991,2.005,2.005,0,1,1,0,4.01A2.023,2.023,0,0,1,291.625,211.566Zm.193-16.276,3.828,0-.655,12.11-2.562,0Z" transform="translate(-291.625 -195.29)" fill="#fd7e62"/>
        </g>
      </g>
    </g>
    <g id="Сгруппировать_3586" data-name="Сгруппировать 3586" transform="translate(1038.185 466.886)">
      <g id="Сгруппировать_3583" data-name="Сгруппировать 3583">
        <g id="Сгруппировать_3582" data-name="Сгруппировать 3582">
          <path id="Контур_5102" data-name="Контур 5102" d="M376.731,227.434a5.422,5.422,0,0,1-4.642-8.155l15.749-26.987a5.366,5.366,0,0,1,4.71-2.691l.016,0a5.363,5.363,0,0,1,4.667,2.732l15.5,27.132A5.422,5.422,0,0,1,408,227.579l-31.248-.145Zm15.821-36.214h-.014a3.762,3.762,0,0,0-3.3,1.887L373.487,220.1a3.806,3.806,0,0,0,3.255,5.72h.014L408,225.96a3.8,3.8,0,0,0,3.321-5.688l-15.5-27.134A3.764,3.764,0,0,0,392.552,191.221Z" transform="translate(-371.342 -189.601)" fill="#fd7e62"/>
        </g>
      </g>
      <g id="Сгруппировать_3585" data-name="Сгруппировать 3585" transform="translate(18.834 12.888)">
        <g id="Сгруппировать_3584" data-name="Сгруппировать 3584">
          <path id="Контур_5103" data-name="Контур 5103" d="M379.656,211.566a2,2,0,0,1,2.1-1.991,1.975,1.975,0,0,1,2.043,1.994,2,2,0,0,1-2.046,2.016A2.023,2.023,0,0,1,379.656,211.566Zm.193-16.276,3.828,0-.655,12.11-2.562,0Z" transform="translate(-379.656 -195.29)" fill="#fd7e62"/>
        </g>
      </g>
    </g>
    <path id="Контур_10828" data-name="Контур 10828" d="M-114.84.144a1.485,1.485,0,0,1-1.116-.432,1.55,1.55,0,0,1-.42-1.128V-15.5a1.508,1.508,0,0,1,.42-1.116,1.508,1.508,0,0,1,1.116-.42,1.54,1.54,0,0,1,1.14.42,1.508,1.508,0,0,1,.42,1.116V-1.416a1.55,1.55,0,0,1-.42,1.128A1.516,1.516,0,0,1-114.84.144ZM-95.616-17.04a1.4,1.4,0,0,1,1.068.42,1.56,1.56,0,0,1,.4,1.116V-1.416A1.576,1.576,0,0,1-94.56-.288a1.387,1.387,0,0,1-1.056.432,1.373,1.373,0,0,1-1.176-.552l-8.76-11.4V-1.416a1.634,1.634,0,0,1-.384,1.128,1.34,1.34,0,0,1-1.056.432,1.34,1.34,0,0,1-1.056-.432,1.634,1.634,0,0,1-.384-1.128V-15.5a1.533,1.533,0,0,1,.408-1.116,1.437,1.437,0,0,1,1.08-.42,1.349,1.349,0,0,1,1.152.552l8.736,11.352V-15.5a1.56,1.56,0,0,1,.4-1.116A1.368,1.368,0,0,1-95.616-17.04ZM-83.76.12A1.54,1.54,0,0,1-84.9-.3a1.508,1.508,0,0,1-.42-1.116v-12.96h-4.368q-1.44,0-1.44-1.272t1.44-1.272h11.832q1.44,0,1.44,1.272t-1.44,1.272h-4.368v12.96A1.508,1.508,0,0,1-82.644-.3,1.508,1.508,0,0,1-83.76.12ZM-71.9,0A1.5,1.5,0,0,1-73-.384a1.435,1.435,0,0,1-.4-1.08V-15.456a1.435,1.435,0,0,1,.4-1.08A1.5,1.5,0,0,1-71.9-16.92h8.664a1.67,1.67,0,0,1,1.08.312,1.079,1.079,0,0,1,.384.888,1.142,1.142,0,0,1-.384.924,1.627,1.627,0,0,1-1.08.324h-7.128v4.656h6.648a1.67,1.67,0,0,1,1.08.312,1.106,1.106,0,0,1,.384.912,1.079,1.079,0,0,1-.384.888,1.67,1.67,0,0,1-1.08.312h-6.648v4.944h7.128a1.627,1.627,0,0,1,1.08.324,1.142,1.142,0,0,1,.384.924,1.079,1.079,0,0,1-.384.888A1.67,1.67,0,0,1-63.24,0ZM-44.52-1.944a1.517,1.517,0,0,1,.288.84,1.125,1.125,0,0,1-.444.912,1.607,1.607,0,0,1-1.044.36,1.572,1.572,0,0,1-.732-.18,1.574,1.574,0,0,1-.588-.54L-50.232-5.4a3.109,3.109,0,0,0-1.02-1.08,2.786,2.786,0,0,0-1.4-.312h-2.352v5.376a1.566,1.566,0,0,1-.408,1.14,1.468,1.468,0,0,1-1.1.42,1.508,1.508,0,0,1-1.116-.42,1.54,1.54,0,0,1-.42-1.14v-14.04a1.435,1.435,0,0,1,.4-1.08,1.5,1.5,0,0,1,1.092-.384h6a6.564,6.564,0,0,1,4.38,1.284,4.612,4.612,0,0,1,1.5,3.708A4.688,4.688,0,0,1-45.8-8.7,5.283,5.283,0,0,1-48.96-7.08a3.026,3.026,0,0,1,1.224.6A5.278,5.278,0,0,1-46.7-5.28ZM-51-9.168a4.064,4.064,0,0,0,2.568-.66,2.454,2.454,0,0,0,.816-2.028,2.412,2.412,0,0,0-.816-2.028A4.179,4.179,0,0,0-51-14.52h-4.032v5.352Zm23.64-7.872a1.4,1.4,0,0,1,1.068.42,1.56,1.56,0,0,1,.4,1.116V-1.416A1.576,1.576,0,0,1-26.3-.288,1.387,1.387,0,0,1-27.36.144a1.373,1.373,0,0,1-1.176-.552l-8.76-11.4V-1.416A1.635,1.635,0,0,1-37.68-.288a1.34,1.34,0,0,1-1.056.432,1.34,1.34,0,0,1-1.056-.432,1.634,1.634,0,0,1-.384-1.128V-15.5a1.533,1.533,0,0,1,.408-1.116,1.437,1.437,0,0,1,1.08-.42,1.349,1.349,0,0,1,1.152.552L-28.8-5.136V-15.5a1.56,1.56,0,0,1,.4-1.116A1.368,1.368,0,0,1-27.36-17.04ZM-5.712-1.848a1.478,1.478,0,0,1,.144.624,1.193,1.193,0,0,1-.444.936A1.514,1.514,0,0,1-7.032.1a1.364,1.364,0,0,1-.72-.2A1.361,1.361,0,0,1-8.28-.744L-9.72-3.96h-8.448l-1.44,3.216a1.361,1.361,0,0,1-.528.636,1.406,1.406,0,0,1-.744.2,1.529,1.529,0,0,1-1.008-.384,1.181,1.181,0,0,1-.456-.936,1.478,1.478,0,0,1,.144-.624l6.624-14.232a1.549,1.549,0,0,1,.66-.732,1.89,1.89,0,0,1,.948-.252,1.89,1.89,0,0,1,.948.252,1.549,1.549,0,0,1,.66.732Zm-11.4-4.512h6.336l-3.168-7.128ZM-.576,0a1.46,1.46,0,0,1-1.08-.384A1.427,1.427,0,0,1-2.04-1.44V-15.5a1.508,1.508,0,0,1,.42-1.116A1.508,1.508,0,0,1-.5-17.04a1.54,1.54,0,0,1,1.14.42,1.508,1.508,0,0,1,.42,1.116v12.96H7.8q1.44,0,1.44,1.272T7.8,0ZM26.04.216a12.119,12.119,0,0,1-3.492-.492,7.687,7.687,0,0,1-2.676-1.332A1.349,1.349,0,0,1,19.32-2.76a1.353,1.353,0,0,1,.3-.876.888.888,0,0,1,.708-.372,1.95,1.95,0,0,1,.984.336,7.2,7.2,0,0,0,2.16,1.08,8.722,8.722,0,0,0,2.5.336,4.915,4.915,0,0,0,2.688-.612,2,2,0,0,0,.936-1.788,1.538,1.538,0,0,0-.876-1.4A11.6,11.6,0,0,0,25.8-7.008a17.273,17.273,0,0,1-3.432-1.056A4.846,4.846,0,0,1,20.376-9.6a3.973,3.973,0,0,1-.672-2.376,4.471,4.471,0,0,1,.84-2.664,5.534,5.534,0,0,1,2.34-1.836,8.288,8.288,0,0,1,3.372-.66,8.37,8.37,0,0,1,5.592,1.824,1.8,1.8,0,0,1,.444.516,1.363,1.363,0,0,1,.132.636,1.353,1.353,0,0,1-.3.876.888.888,0,0,1-.708.372,1.325,1.325,0,0,1-.444-.072,3.558,3.558,0,0,1-.54-.264,8.109,8.109,0,0,0-1.908-1.068,6.469,6.469,0,0,0-2.268-.348,4.448,4.448,0,0,0-2.58.66,2.113,2.113,0,0,0-.948,1.836,1.685,1.685,0,0,0,.84,1.512,9.845,9.845,0,0,0,2.856.984A19.217,19.217,0,0,1,29.892-8.6a5.143,5.143,0,0,1,2.04,1.5,3.606,3.606,0,0,1,.708,2.28A4.355,4.355,0,0,1,31.812-2.2,5.4,5.4,0,0,1,29.484-.42,8.756,8.756,0,0,1,26.04.216ZM38.184,0a1.5,1.5,0,0,1-1.092-.384,1.435,1.435,0,0,1-.4-1.08V-15.456a1.435,1.435,0,0,1,.4-1.08,1.5,1.5,0,0,1,1.092-.384h8.664a1.67,1.67,0,0,1,1.08.312,1.079,1.079,0,0,1,.384.888,1.142,1.142,0,0,1-.384.924,1.627,1.627,0,0,1-1.08.324H39.72v4.656h6.648a1.67,1.67,0,0,1,1.08.312,1.106,1.106,0,0,1,.384.912,1.079,1.079,0,0,1-.384.888,1.67,1.67,0,0,1-1.08.312H39.72v4.944h7.128a1.627,1.627,0,0,1,1.08.324,1.142,1.142,0,0,1,.384.924,1.079,1.079,0,0,1-.384.888A1.67,1.67,0,0,1,46.848,0ZM65.568-1.944a1.517,1.517,0,0,1,.288.84,1.125,1.125,0,0,1-.444.912,1.607,1.607,0,0,1-1.044.36,1.572,1.572,0,0,1-.732-.18,1.574,1.574,0,0,1-.588-.54L59.856-5.4a3.109,3.109,0,0,0-1.02-1.08,2.786,2.786,0,0,0-1.4-.312H55.08v5.376a1.566,1.566,0,0,1-.408,1.14,1.468,1.468,0,0,1-1.1.42,1.508,1.508,0,0,1-1.116-.42,1.54,1.54,0,0,1-.42-1.14v-14.04a1.435,1.435,0,0,1,.4-1.08,1.5,1.5,0,0,1,1.092-.384h6a6.564,6.564,0,0,1,4.38,1.284,4.612,4.612,0,0,1,1.5,3.708A4.688,4.688,0,0,1,64.284-8.7a5.283,5.283,0,0,1-3.156,1.62,3.026,3.026,0,0,1,1.224.6,5.278,5.278,0,0,1,1.032,1.2Zm-6.48-7.224a4.064,4.064,0,0,0,2.568-.66,2.454,2.454,0,0,0,.816-2.028,2.412,2.412,0,0,0-.816-2.028,4.179,4.179,0,0,0-2.568-.636H55.056v5.352Zm22.9-7.08a1.311,1.311,0,0,1,1.272-.816,1.684,1.684,0,0,1,1.08.384,1.182,1.182,0,0,1,.48.96,1.55,1.55,0,0,1-.144.6L78.024-.816a1.57,1.57,0,0,1-.66.708,1.89,1.89,0,0,1-.948.252,1.89,1.89,0,0,1-.948-.252,1.57,1.57,0,0,1-.66-.708l-6.624-14.3a1.511,1.511,0,0,1-.144-.576,1.2,1.2,0,0,1,.492-.984,1.766,1.766,0,0,1,1.116-.384,1.469,1.469,0,0,1,.756.2,1.352,1.352,0,0,1,.54.612l5.52,12.264ZM89.5,0A1.5,1.5,0,0,1,88.4-.384a1.435,1.435,0,0,1-.4-1.08V-15.456a1.435,1.435,0,0,1,.4-1.08A1.5,1.5,0,0,1,89.5-16.92H98.16a1.67,1.67,0,0,1,1.08.312,1.079,1.079,0,0,1,.384.888,1.142,1.142,0,0,1-.384.924,1.627,1.627,0,0,1-1.08.324H91.032v4.656H97.68a1.67,1.67,0,0,1,1.08.312,1.106,1.106,0,0,1,.384.912,1.079,1.079,0,0,1-.384.888,1.67,1.67,0,0,1-1.08.312H91.032v4.944H98.16a1.627,1.627,0,0,1,1.08.324,1.142,1.142,0,0,1,.384.924,1.079,1.079,0,0,1-.384.888A1.67,1.67,0,0,1,98.16,0ZM116.88-1.944a1.517,1.517,0,0,1,.288.84,1.125,1.125,0,0,1-.444.912,1.607,1.607,0,0,1-1.044.36,1.572,1.572,0,0,1-.732-.18,1.574,1.574,0,0,1-.588-.54L111.168-5.4a3.109,3.109,0,0,0-1.02-1.08,2.786,2.786,0,0,0-1.4-.312h-2.352v5.376a1.566,1.566,0,0,1-.408,1.14,1.468,1.468,0,0,1-1.1.42,1.508,1.508,0,0,1-1.116-.42,1.54,1.54,0,0,1-.42-1.14v-14.04a1.435,1.435,0,0,1,.4-1.08,1.5,1.5,0,0,1,1.092-.384h6a6.564,6.564,0,0,1,4.38,1.284,4.612,4.612,0,0,1,1.5,3.708A4.688,4.688,0,0,1,115.6-8.7a5.283,5.283,0,0,1-3.156,1.62,3.026,3.026,0,0,1,1.224.6,5.279,5.279,0,0,1,1.032,1.2ZM110.4-9.168a4.064,4.064,0,0,0,2.568-.66,2.454,2.454,0,0,0,.816-2.028,2.412,2.412,0,0,0-.816-2.028,4.179,4.179,0,0,0-2.568-.636h-4.032v5.352Z" transform="translate(960 539)" fill="#2a2a2a"/>
    <path id="Контур_10829" data-name="Контур 10829" d="M-40.932,0a2.046,2.046,0,0,1-1.512-.528,2.046,2.046,0,0,1-.528-1.512V-14.88a2.046,2.046,0,0,1,.528-1.512,2.046,2.046,0,0,1,1.512-.528h8.3a2.418,2.418,0,0,1,1.56.432,1.52,1.52,0,0,1,.528,1.248q0,1.728-2.088,1.728h-6.048V-10.3h5.568q2.088,0,2.088,1.7a1.52,1.52,0,0,1-.528,1.248,2.418,2.418,0,0,1-1.56.432h-5.568v3.5h6.048q2.088,0,2.088,1.728a1.52,1.52,0,0,1-.528,1.248A2.418,2.418,0,0,1-32.628,0Zm27.72-2.808a2.231,2.231,0,0,1,.432,1.224A1.59,1.59,0,0,1-13.416-.3a2.274,2.274,0,0,1-1.476.516,2.294,2.294,0,0,1-1.08-.264,2.387,2.387,0,0,1-.864-.792l-3.12-4.56a2.473,2.473,0,0,0-.708-.708,1.643,1.643,0,0,0-.876-.228H-23.1v4.3a2.182,2.182,0,0,1-.576,1.6A2.116,2.116,0,0,1-25.26.144a2.157,2.157,0,0,1-1.6-.588,2.157,2.157,0,0,1-.588-1.6V-14.88a2.046,2.046,0,0,1,.528-1.512A2.046,2.046,0,0,1-25.4-16.92h6.024a6.921,6.921,0,0,1,4.62,1.332,4.8,4.8,0,0,1,1.548,3.852,5.072,5.072,0,0,1-1.056,3.252A5.181,5.181,0,0,1-17.244-6.7a3.233,3.233,0,0,1,1.38.528A4.923,4.923,0,0,1-14.7-4.944Zm-6.864-6.84a3.7,3.7,0,0,0,2.1-.456,1.7,1.7,0,0,0,.636-1.488,1.766,1.766,0,0,0-.636-1.524,3.62,3.62,0,0,0-2.1-.468h-3.072v3.936ZM4.956-2.808a2.231,2.231,0,0,1,.432,1.224A1.59,1.59,0,0,1,4.752-.3,2.274,2.274,0,0,1,3.276.216,2.294,2.294,0,0,1,2.2-.048,2.387,2.387,0,0,1,1.332-.84L-1.788-5.4A2.473,2.473,0,0,0-2.5-6.108a1.643,1.643,0,0,0-.876-.228h-1.56v4.3a2.182,2.182,0,0,1-.576,1.6A2.116,2.116,0,0,1-7.092.144a2.157,2.157,0,0,1-1.6-.588,2.157,2.157,0,0,1-.588-1.6V-14.88a2.046,2.046,0,0,1,.528-1.512,2.046,2.046,0,0,1,1.512-.528h6.024a6.921,6.921,0,0,1,4.62,1.332,4.8,4.8,0,0,1,1.548,3.852A5.072,5.072,0,0,1,3.9-8.484,5.181,5.181,0,0,1,.924-6.7a3.233,3.233,0,0,1,1.38.528A4.923,4.923,0,0,1,3.468-4.944Zm-6.864-6.84a3.7,3.7,0,0,0,2.1-.456,1.7,1.7,0,0,0,.636-1.488,1.766,1.766,0,0,0-.636-1.524,3.62,3.62,0,0,0-2.1-.468H-4.98v3.936ZM16.812.216a9.066,9.066,0,0,1-4.5-1.068,7.288,7.288,0,0,1-2.94-3.024,9.715,9.715,0,0,1-1.032-4.6,9.715,9.715,0,0,1,1.032-4.6,7.212,7.212,0,0,1,2.94-3.012,9.149,9.149,0,0,1,4.5-1.056,9.149,9.149,0,0,1,4.5,1.056,7.138,7.138,0,0,1,2.928,3.012,9.809,9.809,0,0,1,1.02,4.6,9.715,9.715,0,0,1-1.032,4.6,7.288,7.288,0,0,1-2.94,3.024A9.015,9.015,0,0,1,16.812.216Zm0-3.384a3.621,3.621,0,0,0,3-1.356,6.224,6.224,0,0,0,1.08-3.948A6.122,6.122,0,0,0,19.8-12.408a3.643,3.643,0,0,0-2.988-1.344,3.648,3.648,0,0,0-3,1.332,6.163,6.163,0,0,0-1.08,3.948,6.215,6.215,0,0,0,1.08,3.96A3.634,3.634,0,0,0,16.812-3.168Zm26.5.36a2.231,2.231,0,0,1,.432,1.224A1.59,1.59,0,0,1,43.1-.3a2.274,2.274,0,0,1-1.476.516,2.294,2.294,0,0,1-1.08-.264,2.387,2.387,0,0,1-.864-.792L36.564-5.4a2.473,2.473,0,0,0-.708-.708,1.643,1.643,0,0,0-.876-.228H33.42v4.3a2.182,2.182,0,0,1-.576,1.6A2.116,2.116,0,0,1,31.26.144a2.157,2.157,0,0,1-1.6-.588,2.157,2.157,0,0,1-.588-1.6V-14.88a2.046,2.046,0,0,1,.528-1.512,2.046,2.046,0,0,1,1.512-.528H37.14a6.921,6.921,0,0,1,4.62,1.332,4.8,4.8,0,0,1,1.548,3.852,5.072,5.072,0,0,1-1.056,3.252A5.181,5.181,0,0,1,39.276-6.7a3.233,3.233,0,0,1,1.38.528A4.923,4.923,0,0,1,41.82-4.944Zm-6.864-6.84a3.7,3.7,0,0,0,2.1-.456,1.7,1.7,0,0,0,.636-1.488,1.766,1.766,0,0,0-.636-1.524,3.62,3.62,0,0,0-2.1-.468H33.372v3.936Z" transform="translate(960 565)" fill="#2a2a2a"/>
    <path id="Контур_10827" data-name="Контур 10827" d="M-19.079-16.016a16.662,16.662,0,0,1,8.334,2.057,14.623,14.623,0,0,1,5.7,5.773A17.367,17.367,0,0,1-2.987.365,17.069,17.069,0,0,1-5.441,9.529a16.244,16.244,0,0,1-6.927,6.134,23.417,23.417,0,0,1-10.319,2.165,30.117,30.117,0,0,1-8.767-1.3,23.825,23.825,0,0,1-7.4-3.608,6.393,6.393,0,0,1-1.7-1.984,5.355,5.355,0,0,1-.541-2.49,5.918,5.918,0,0,1,1.227-3.788,3.728,3.728,0,0,1,3.031-1.551,4.888,4.888,0,0,1,1.8.289,21.973,21.973,0,0,1,2.165,1.082l1.443.722a40.2,40.2,0,0,0,4.077,1.732,11.954,11.954,0,0,0,4,.649q4.041,0,5.989-1.624T-15.4.87a6.421,6.421,0,0,0-2.02-5.051,8.157,8.157,0,0,0-5.628-1.8,19.723,19.723,0,0,0-3.933.361,25.558,25.558,0,0,0-4.149,1.3,6.9,6.9,0,0,1-3.247.794,4.989,4.989,0,0,1-3.392-1.191A3.955,3.955,0,0,1-39.14-7.861V-27.417a6.256,6.256,0,0,1,1.588-4.618,6.152,6.152,0,0,1,4.546-1.588h22.37q6.278,0,6.278,4.979,0,5.051-6.278,5.051H-26.223v8.876A18.04,18.04,0,0,1-19.079-16.016ZM20.681,17.9q-9.453,0-14.432-6.711T1.27-8.222q0-12.628,4.979-19.339t14.432-6.711q9.381,0,14.4,6.711T40.092-8.222q0,12.7-4.979,19.411T20.681,17.9Zm0-10.03q3.464,0,4.979-3.752T27.175-8.222q0-8.515-1.515-12.267t-4.979-3.752q-3.464,0-4.979,3.716t-1.515,12.3q0,8.587,1.515,12.339T20.681,7.869Zm43.3,10.03q-9.453,0-14.432-6.711T44.566-8.222q0-12.628,4.979-19.339t14.432-6.711q9.381,0,14.4,6.711T83.388-8.222q0,12.7-4.979,19.411T63.977,17.9Zm0-10.03q3.464,0,4.979-3.752T70.471-8.222q0-8.515-1.515-12.267t-4.979-3.752q-3.464,0-4.979,3.716t-1.515,12.3Q57.483.365,59,4.117T63.977,7.869Z" transform="translate(939.087 491.532)" fill="#ff3e3e"/>
  </g>
</svg>
